<svg id="Digital_content" height="512" viewBox="0 0 64 64" width="512" xmlns="http://www.w3.org/2000/svg" xmlns:xlink="http://www.w3.org/1999/xlink" data-name="Digital content"><linearGradient id="New_Gradient_Swatch_1" gradientUnits="userSpaceOnUse" x1="12.406" x2="71.875" y1="74.785" y2="20.806"><stop offset="0" stop-color="#03a9f4"/><stop offset="1" stop-color="#cd118c"/></linearGradient><linearGradient id="New_Gradient_Swatch_1-2" x1="-.487" x2="58.982" xlink:href="#New_Gradient_Swatch_1" y1="60.581" y2="6.601"/><linearGradient id="New_Gradient_Swatch_1-3" x1="-5.012" x2="54.457" xlink:href="#New_Gradient_Swatch_1" y1="55.596" y2="1.616"/><path d="m30 56h4v2h-4z" fill="#03a9f4"/><path d="m59 13h-9v-8a3.009 3.009 0 0 0 -3-3h-32a3.009 3.009 0 0 0 -3 3v17.75l-6.71 12.57a11.133 11.133 0 0 0 -1.29 5.18v20.5a1 1 0 0 0 1 1h42a3.009 3.009 0 0 0 3-3v-14h9a1 1 0 0 0 1-1v-30a1 1 0 0 0 -1-1zm-45-8a1 1 0 0 1 1-1h32a1 1 0 0 1 1 1v2h-34zm0 4h34v4h-31a1 1 0 0 0 -1 1v22.63l-2 1.43zm5.04 50.23-.55.77h-12.49v-19.5a9.093 9.093 0 0 1 1.06-4.24l4.94-9.26v13a1 1 0 0 0 1.58.81l4.1-2.93a2.76 2.76 0 0 1 3.85 3.85l-3.34 4.69a.991.991 0 0 0 0 1.16l.85 1.19a9.013 9.013 0 0 1 0 10.46zm28.96-.23a1 1 0 0 1 -1 1h-26.08a10.961 10.961 0 0 0 1.79-6h25.29zm0-7h-25.48a10.972 10.972 0 0 0 -1.86-4.39l-.43-.61 1.43-2h26.34zm10-9h-34.91l.07-.11a4.757 4.757 0 0 0 -.16-5.73 4.478 4.478 0 0 0 -1.54-1.25l7.59-5.7 7.42 4.64a1 1 0 0 0 1.32-.24l9.25-12.02 10.96 12.78zm0-10.7-10.24-11.95a.975.975 0 0 0 -.79-.35.986.986 0 0 0 -.76.39l-9.45 12.28-7.23-4.52a1 1 0 0 0 -1.13.05l-9.62 7.21a5.361 5.361 0 0 0 -.78.15v-20.56h40z" fill="#03a9f4"/><path d="m32 18a4 4 0 1 0 4 4 4 4 0 0 0 -4-4zm0 6a2 2 0 1 1 2-2 2 2 0 0 1 -2 2z" fill="url(#New_Gradient_Swatch_1-3)"/><path d="m30 56h4v2h-4z" fill="#03a9f4"/></svg>